# xmcd
#
# Track frame offsets: 
#        150
#        12990
#        25306
#        37552
#        50516
#        62374
#        75620
#        87657
#        99008
#        110397
#        122173
#        135478
#        146314
#        158789
#        172145
#        184473
#        197443
#        209038
#        222152
#        233865
#        245448
#        256707
#        268816
#        282092
#        292643
#        314702
#
# Disc length: 4659 seconds
#
# Revision: 3
# Processed by: cddbd v1.5.2PL0 Copyright (c) Steve Scherf et al.
# Submitted via: ExactAudioCopy v1.0b1
#
DISCID=6c12311a
DTITLE=The Supremes - More Hits
DYEAR=1965
DGENRE=Motown
TTITLE0=Ask Any Girl (mono)
TTITLE1=Nothing But Heartaches (mono)
TTITLE2=Mother Dear (mono)
TTITLE3=Stop! In The Name Of Love (mono)
TTITLE4=Honey Boy (mono)
TTITLE5=Back In My Arms Again (mono)
TTITLE6=Whisper You Love Me Boy (mono)
TTITLE7=The OnlyTime I Am Happy (mono)
TTITLE8=He Holds His Own (mono)
TTITLE9=Who Could Ever Doubt My Love (mono)
TTITLE10=(I'm So Glad) Heartaches Don't  Last Always (mono)
TTITLE11=I'm In Love Again (mono)
TTITLE12=Ask Any Girl (stereo)
TTITLE13=Nothing But Heataches (stereo)
TTITLE14=Mother Dear (stereo)
TTITLE15=Stop! In The Name Of Love (stereo)
TTITLE16=Honey Boy (stereo)
TTITLE17=Back In My Arms Again (stereo)
TTITLE18=Whisper You Love Me Boy (stereo)
TTITLE19=The Only Time I'm Happy (stereo)
TTITLE20=He Holds His Own (stereo)
TTITLE21=Who Could Ever Doubt My Love (stereo)
TTITLE22=(I'm So Glad) Heartaches Don't Last Always (stereo)
TTITLE23=I'm In Love Again (stereo)
TTITLE24=Coca-Cola Commercials
TTITLE25=Supremes Interview
EXTD=
EXTT0=
EXTT1=
EXTT2=
EXTT3=
EXTT4=
EXTT5=
EXTT6=
EXTT7=
EXTT8=
EXTT9=
EXTT10=
EXTT11=
EXTT12=
EXTT13=
EXTT14=
EXTT15=
EXTT16=
EXTT17=
EXTT18=
EXTT19=
EXTT20=
EXTT21=
EXTT22=
EXTT23=
EXTT24=
EXTT25=
PLAYORDER=
